<?xml version="1.0" encoding="UTF-8"?>
<svg width="31px" height="31px" viewBox="0 0 18 18" version="1.1" xmlns="http://www.w3.org/2000/svg" xmlns:xlink="http://www.w3.org/1999/xlink">
    <!-- Generator: Sketch 61.2 (89653) - https://sketch.com -->
    <title>archive</title>
    <desc>Created with Sketch.</desc>
    <defs>
        <path d="M9.8662,14 L14.1342,14 C14.6102,14 15.0002,13.61 15.0002,13.134 L15.0002,12.866 C15.0002,12.39 14.6102,12 14.1342,12 L9.8662,12 C9.3892,12 9.0002,12.39 9.0002,12.866 L9.0002,13.134 C9.0002,13.61 9.3892,14 9.8662,14 M18,18 C18,18.551 17.552,19 17,19 L7,19 C6.449,19 6,18.551 6,18 L6,9 L18,9 L18,18 Z M6,5 L18,5 C18.552,5 19,5.449 19,6 C19,6.551 18.552,7 18,7 L6,7 C5.449,7 5,6.551 5,6 C5,5.449 5.449,5 6,5 L6,5 Z M21,6 C21,4.346 19.654,3 18,3 L6,3 C4.346,3 3,4.346 3,6 C3,6.883 3.391,7.67 4,8.22 L4,18 C4,19.654 5.346,21 7,21 L17,21 C18.654,21 20,19.654 20,18 L20,8.22 C20.609,7.67 21,6.883 21,6 L21,6 Z" id="path-1"></path>
    </defs>
    <g id="Page-1" stroke="none" stroke-width="1" fill="none" fill-rule="evenodd">
        <g id="Second-screen" transform="translate(-334.000000, -673.000000)">
            <g id="Background"></g>
            <g id="archive" transform="translate(331.000000, 670.000000)">
                <mask id="mask-2" fill="white">
                    <use xlink:href="#path-1"></use>
                </mask>
                <use id="🎨-Icon-Сolor" fill="#6B6B6B" fill-rule="nonzero" xlink:href="#path-1"></use>
            </g>
        </g>
    </g>
</svg>