<?xml version="1.0" encoding="UTF-8"?>
<svg width="21px" height="29px" viewBox="0 0 14 18" version="1.1" xmlns="http://www.w3.org/2000/svg" xmlns:xlink="http://www.w3.org/1999/xlink">
    <!-- Generator: Sketch 61.2 (89653) - https://sketch.com -->
    <title>bookmark-fill</title>
    <desc>Created with Sketch.</desc>
    <defs>
        <path d="M6,21 C5.83,21 5.66,20.957 5.507,20.87 C5.194,20.693 5,20.36 5,20 L5,5.333 C5,4.047 5.987,3 7.2,3 L16.8,3 C18.013,3 19,4.047 19,5.333 L19,20 C19,20.355 18.811,20.685 18.504,20.864 C18.197,21.044 17.818,21.046 17.508,20.871 L11.836,17.663 L6.515,20.857 C6.356,20.952 6.178,21 6,21" id="path-1"></path>
    </defs>
    <g id="Page-1" stroke="none" stroke-width="1" fill="none" fill-rule="evenodd">
        <g id="Second-screen" transform="translate(-377.000000, -616.000000)">
            <g id="Background"></g>
            <g id="bookmark-fill" transform="translate(372.000000, 613.000000)">
                <mask id="mask-2" fill="white">
                    <use xlink:href="#path-1"></use>
                </mask>
                <use id="🎨-Icon-Сolor" fill="#bbb3a3" fill-rule="nonzero" xlink:href="#path-1"></use>
            </g>
        </g>
    </g>
</svg>