
<svg width="29px" height="35px" viewBox="0 0 32 38" version="1.1" xmlns="http://www.w3.org/2000/svg" xmlns:xlink="http://www.w3.org/1999/xlink">
    <defs>
        <path d="M14,27.5 C14.9625,27.5 15.75,28.325 15.75,29.3333333 C15.75,30.3416667 14.9625,31.1666667 14,31.1666667 C13.0375,31.1666667 12.25,30.3416667 12.25,29.3333333 C12.25,28.325 13.0375,27.5 14,27.5 Z M28,27.5 C28.9625,27.5 29.75,28.325 29.75,29.3333333 C29.75,30.3416667 28.9625,31.1666667 28,31.1666667 L28,31.1666667 L21,31.1666667 C20.0375,31.1666667 19.25,30.3416667 19.25,29.3333333 C19.25,28.325 20.0375,27.5 21,27.5 L21,27.5 Z M31.5,36.6666667 L10.5,36.6666667 C9.53575,36.6666667 8.75,35.8435 8.75,34.8333333 L8.75,23.8333333 L33.25,23.8333333 L33.25,34.8333333 C33.25,35.8435 32.46425,36.6666667 31.5,36.6666667 M10.5,11 L12.25,11 L12.25,12.8333333 C12.25,13.8416667 13.0375,14.6666667 14,14.6666667 C14.9625,14.6666667 15.75,13.8416667 15.75,12.8333333 L15.75,11 L26.25,11 L26.25,12.8333333 C26.25,13.8416667 27.0375,14.6666667 28,14.6666667 C28.9625,14.6666667 29.75,13.8416667 29.75,12.8333333 L29.75,11 L31.5,11 C32.46425,11 33.25,11.8231667 33.25,12.8333333 L33.25,20.1666667 L8.75,20.1666667 L8.75,12.8333333 C8.75,11.8231667 9.53575,11 10.5,11 M31.5,7.33333333 L29.75,7.33333333 L29.75,5.5 C29.75,4.49166667 28.9625,3.66666667 28,3.66666667 C27.0375,3.66666667 26.25,4.49166667 26.25,5.5 L26.25,7.33333333 L15.75,7.33333333 L15.75,5.5 C15.75,4.49166667 14.9625,3.66666667 14,3.66666667 C13.0375,3.66666667 12.25,4.49166667 12.25,5.5 L12.25,7.33333333 L10.5,7.33333333 C7.6055,7.33333333 5.25,9.801 5.25,12.8333333 L5.25,34.8333333 C5.25,37.8656667 7.6055,40.3333333 10.5,40.3333333 L31.5,40.3333333 C34.3945,40.3333333 36.75,37.8656667 36.75,34.8333333 L36.75,12.8333333 C36.75,9.801 34.3945,7.33333333 31.5,7.33333333" id="path-1"></path>
    </defs>
    <g id="Page-1" stroke="none" stroke-width="1" fill="none" fill-rule="evenodd">
        <g id="Home-screen" transform="translate(-247.000000, -826.000000)">
            <g id="Background" transform="translate(-0.500000, 0.000000)">
                <g id="calendar" transform="translate(242.500000, 823.000000)">
                    <mask id="mask-2" fill="white">
                        <use xlink:href="#path-1"></use>
                    </mask>
                    <use id="🎨-Icon-Сolor" fill="#6B6B6B" fill-rule="evenodd" xlink:href="#path-1"></use>
                </g>
            </g>
        </g>
    </g>
</svg>