
<svg width="31px" height="35px" viewBox="0 0 34 38" version="1.1" xmlns="http://www.w3.org/2000/svg" xmlns:xlink="http://www.w3.org/1999/xlink">
    <g id="Page-1" stroke="none" stroke-width="1" fill="none" fill-rule="evenodd">
        <g id="Second-screen" transform="translate(-33.000000, -826.000000)" fill="#6B6B6B">
            <g id="Background">
                <g id="home" transform="translate(28.000000, 823.000000)">
                    <path d="M21.9967,8.10296667 L34.8337,21.2883 L34.8153667,36.6443 L29.3337,36.6443 L29.3337,23.8109667 C29.3337,22.7971333 28.5123667,21.9776333 27.5003667,21.9776333 L16.5003667,21.9776333 C15.4865333,21.9776333 14.6670333,22.7971333 14.6670333,23.8109667 L14.6670333,36.6443 L9.16703333,36.6443 L9.17803333,21.2131333 L21.9967,8.10296667 Z M25.6670333,25.6443 L25.6670333,36.6443 L18.3337,36.6443 L18.3337,25.6443 L25.6670333,25.6443 Z M37.4443667,18.6501333 L23.3112,4.19613333 C22.6200333,3.4903 21.3807,3.4903 20.6895333,4.19613333 L6.55453333,18.6519667 C5.88536667,19.3394667 5.50036667,20.3001333 5.50036667,21.2883 L5.50036667,36.6443 C5.50036667,38.6664667 7.0532,40.3109667 8.9617,40.3109667 L16.5003667,40.3109667 L27.5003667,40.3109667 L35.0372,40.3109667 C36.9457,40.3109667 38.5003667,38.6664667 38.5003667,36.6443 L38.5003667,21.2883 C38.5003667,20.3001333 38.1153667,19.3394667 37.4443667,18.6501333 L37.4443667,18.6501333 Z" id="🎨-Icon-Сolor"></path>
                </g>
            </g>
        </g>
    </g>
</svg>