<?xml version="1.0" encoding="UTF-8"?>
<svg width="27px" height="25px" viewBox="0 0 27 25" version="1.1" xmlns="http://www.w3.org/2000/svg" xmlns:xlink="http://www.w3.org/1999/xlink">
    <!-- Generator: Sketch 61 (89581) - https://sketch.com -->
    <title>log-out</title>
    <desc>Created with Sketch.</desc>
    <defs>
        <path d="M10.7916667,6.16666667 C11.6395833,6.16666667 12.3333333,6.86041667 12.3333333,7.70833333 C12.3333333,8.55625 11.6395833,9.25 10.7916667,9.25 L10.7916667,9.25 L9.25,9.25 L9.25,27.75 L10.7916667,27.75 C11.6395833,27.75 12.3333333,28.44375 12.3333333,29.2916667 C12.3333333,30.1395833 11.6395833,30.8333333 10.7916667,30.8333333 L10.7916667,30.8333333 L7.70833333,30.8333333 C6.86041667,30.8333333 6.16666667,30.1395833 6.16666667,29.2916667 L6.16666667,29.2916667 L6.16666667,7.70833333 C6.16666667,6.86041667 6.86041667,6.16666667 7.70833333,6.16666667 L7.70833333,6.16666667 Z M25.6084708,11.0719417 C26.3037625,10.58015 27.2657625,10.7497333 27.7560125,11.4465667 L27.7560125,11.4465667 L32.0942625,17.6132333 C32.4796792,18.1589833 32.4673458,18.891275 32.0665125,19.4246917 L32.0665125,19.4246917 L27.4415125,25.5913583 C27.1393458,25.995275 26.6753042,26.208025 26.2066375,26.208025 C25.8859708,26.208025 25.5606792,26.1078167 25.2831792,25.8996917 C24.6017625,25.3894 24.4645542,24.422775 24.9748458,23.7429 L24.9748458,23.7429 L27.7513875,20.0413583 L15.4165125,20.0413583 C14.5655125,20.0413583 13.8748458,19.3522333 13.8748458,18.4996917 C13.8748458,17.64715 14.5655125,16.958025 15.4165125,16.958025 L15.4165125,16.958025 L27.7498458,16.958025 C27.7960958,16.958025 27.8361792,16.98115 27.8824292,16.985775 L27.8824292,16.985775 L25.2338458,13.2194833 C24.7435958,12.5241917 24.9116375,11.5621917 25.6084708,11.0719417 Z" id="path-1"></path>
    </defs>
    <g id="Page-1" stroke="none" stroke-width="1" fill="none" fill-rule="evenodd">
        <g id="Home-screen" transform="translate(-246.000000, -117.000000)">
            <g id="Background" transform="translate(-0.500000, 0.000000)"></g>
            <g id="Card" transform="translate(20.000000, 135.000000)"></g>
            <g id="log-out" transform="translate(240.000000, 111.000000)">
                <mask id="mask-2" fill="white">
                    <use xlink:href="#path-1"></use>
                </mask>
                <use id="🎨-Icon-Сolor" fill="#6B6B6B" fill-rule="evenodd" xlink:href="#path-1"></use>
            </g>
        </g>
    </g>
</svg>