
<svg width="23px" height="31px" viewBox="0 0 26 34" version="1.1" xmlns="http://www.w3.org/2000/svg" xmlns:xlink="http://www.w3.org/1999/xlink">
    <g id="Page-1" stroke="none" stroke-width="1" fill="none" fill-rule="evenodd">
        <g id="Home-screen" transform="translate(-353.000000, -828.000000)" fill="#6B6B6B">
            <g id="Background" transform="translate(-0.500000, 0.000000)">
                <g id="person" transform="translate(345.500000, 823.000000)">
                    <path d="M33.25,36.6666667 C33.25,37.6786667 32.46775,38.5 31.5,38.5 C30.53225,38.5 29.75,37.6786667 29.75,36.6666667 C29.75,31.6121667 25.82475,27.5 21,27.5 C16.17525,27.5 12.25,31.6121667 12.25,36.6666667 C12.25,37.6786667 11.46775,38.5 10.5,38.5 C9.53225,38.5 8.75,37.6786667 8.75,36.6666667 C8.75,29.59 14.24675,23.8333333 21,23.8333333 C27.75325,23.8333333 33.25,29.59 33.25,36.6666667 M21,9.16666667 C22.93025,9.16666667 24.5,10.8111667 24.5,12.8333333 C24.5,14.8555 22.93025,16.5 21,16.5 C19.06975,16.5 17.5,14.8555 17.5,12.8333333 C17.5,10.8111667 19.06975,9.16666667 21,9.16666667 M21,20.1666667 C24.8605,20.1666667 28,16.8776667 28,12.8333333 C28,8.789 24.8605,5.5 21,5.5 C17.1395,5.5 14,8.789 14,12.8333333 C14,16.8776667 17.1395,20.1666667 21,20.1666667" id="🎨-Icon-Сolor"></path>
                </g>
            </g>
        </g>
    </g>
</svg>