<?xml version="1.0" encoding="UTF-8"?>
<svg width="21px" height="25px" viewBox="0 0 16 20" version="1.1" xmlns="http://www.w3.org/2000/svg" xmlns:xlink="http://www.w3.org/1999/xlink">
    <!-- Generator: Sketch 61.2 (89653) - https://sketch.com -->
    <title>file-add</title>
    <desc>Created with Sketch.</desc>
    <defs>
        <path d="M14,13 L13,13 L13,12 C13,11.448 12.553,11 12,11 C11.447,11 11,11.448 11,12 L11,13 L10,13 C9.447,13 9,13.448 9,14 C9,14.552 9.447,15 10,15 L11,15 L11,16 C11,16.552 11.447,17 12,17 C12.553,17 13,16.552 13,16 L13,15 L14,15 C14.553,15 15,14.552 15,14 C15,13.448 14.553,13 14,13 M17.4443,20 L6.5553,20 C6.2493,20 6.0003,19.776 6.0003,19.5 L6.0003,4.5 C6.0003,4.224 6.2493,4 6.5553,4 L12.0003,4 L12.0003,7.15 C12.0003,8.722 13.2173,10 14.7143,10 L18.0003,10 L18.0003,19.5 C18.0003,19.776 17.7513,20 17.4443,20 L17.4443,20 Z M14.0003,4.978 L16.7423,8 L14.7143,8 C14.3203,8 14.0003,7.619 14.0003,7.15 L14.0003,4.978 Z M19.7403,8.328 L14.2963,2.328 C14.1063,2.119 13.8383,2 13.5553,2 L6.5553,2 C5.1463,2 4.0003,3.122 4.0003,4.5 L4.0003,19.5 C4.0003,20.878 5.1463,22 6.5553,22 L17.4443,22 C18.8533,22 20.0003,20.878 20.0003,19.5 L20.0003,9 C20.0003,8.751 19.9073,8.512 19.7403,8.328 L19.7403,8.328 Z" id="path-1"></path>
    </defs>
    <g id="Page-1" stroke="none" stroke-width="1" fill="none" fill-rule="evenodd">
        <g id="Second-screen" transform="translate(-340.000000, -736.000000)">
            <g id="Background"></g>
            <g id="file-add" transform="translate(336.000000, 734.000000)">
                <mask id="mask-2" fill="white">
                    <use xlink:href="#path-1"></use>
                </mask>
                <use id="🎨-Icon-Сolor" fill="#6B6B6B" fill-rule="nonzero" xlink:href="#path-1"></use>
            </g>
        </g>
    </g>
</svg>