
<svg width="29px" height="31px" viewBox="0 0 32 34" version="1.1" xmlns="http://www.w3.org/2000/svg" xmlns:xlink="http://www.w3.org/1999/xlink">
    <defs>
        <path d="M26.25,20.1666667 L22.75,20.1666667 L22.75,16.5 C22.75,15.4916667 21.9625,14.6666667 21,14.6666667 C20.0375,14.6666667 19.25,15.4916667 19.25,16.5 L19.25,20.1666667 L15.75,20.1666667 C14.7875,20.1666667 14,20.9916667 14,22 C14,23.0083333 14.7875,23.8333333 15.75,23.8333333 L19.25,23.8333333 L19.25,27.5 C19.25,28.5083333 20.0375,29.3333333 21,29.3333333 C21.9625,29.3333333 22.75,28.5083333 22.75,27.5 L22.75,23.8333333 L26.25,23.8333333 C27.2125,23.8333333 28,23.0083333 28,22 C28,20.9916667 27.2125,20.1666667 26.25,20.1666667 M33.25,33 C33.25,34.0101667 32.466,34.8333333 31.5,34.8333333 L10.5,34.8333333 C9.534,34.8333333 8.75,34.0101667 8.75,33 L8.75,11 C8.75,9.98983333 9.534,9.16666667 10.5,9.16666667 L31.5,9.16666667 C32.466,9.16666667 33.25,9.98983333 33.25,11 L33.25,33 Z M31.5,5.5 L10.5,5.5 C7.6055,5.5 5.25,7.96766667 5.25,11 L5.25,33 C5.25,36.0323333 7.6055,38.5 10.5,38.5 L31.5,38.5 C34.3945,38.5 36.75,36.0323333 36.75,33 L36.75,11 C36.75,7.96766667 34.3945,5.5 31.5,5.5 L31.5,5.5 Z" id="path-1"></path>
    </defs>
    <g id="Page-1" stroke="none" stroke-width="1" fill="none" fill-rule="evenodd">
        <g id="Home-screen" transform="translate(-136.000000, -828.000000)">
            <g id="Background" transform="translate(-0.500000, 0.000000)">
                <g id="plus-square" transform="translate(131.500000, 823.000000)">
                    <mask id="mask-2" fill="white">
                        <use xlink:href="#path-1"></use>
                    </mask>
                    <use id="🎨-Icon-Сolor" fill="#bbb3a3" fill-rule="evenodd" xlink:href="#path-1"></use>
                </g>
            </g>
        </g>
    </g>
</svg>