
<svg width="38px" height="34px" viewBox="0 0 38 34" version="1.1" xmlns="http://www.w3.org/2000/svg" xmlns:xlink="http://www.w3.org/1999/xlink">
    <defs>
        <path d="M20.7258333,20.68 C21.4481667,19.9906667 22.5903333,19.9961667 23.2961667,20.7038333 L23.2961667,20.7038333 L28.7961667,26.2038333 C29.513,26.9206667 29.513,28.0793333 28.7961667,28.7961667 C28.4386667,29.1536667 27.9693333,29.3333333 27.5,29.3333333 C27.0306667,29.3333333 26.5613333,29.1536667 26.2038333,28.7961667 L26.2038333,28.7961667 L23.8333333,26.4256667 L23.8333333,36.6666667 C23.8333333,37.6805 23.012,38.5 22,38.5 C20.988,38.5 20.1666667,37.6805 20.1666667,36.6666667 L20.1666667,36.6666667 L20.1666667,26.3193333 L17.7741667,28.6293333 C17.0463333,29.3351667 15.8858333,29.3113333 15.1818333,28.5835 C14.4778333,27.8538333 14.498,26.6951667 15.2258333,25.9911667 L15.2258333,25.9911667 Z M21.9996333,5.49981667 C26.7314667,5.49981667 30.9004667,8.54498333 32.4038,12.91565 C36.8753,13.5224833 40.3329667,17.36515 40.3329667,21.9998167 C40.3329667,24.2383167 39.5189667,26.3924833 38.0413,28.0663167 C37.6783,28.47515 37.1741333,28.6862129 36.6663,28.6862129 C36.2354667,28.6862129 35.8028,28.53565 35.4526333,28.22765 C34.6954667,27.5548167 34.6221333,26.3979833 35.2931333,25.63715 C36.1786333,24.63615 36.6663,23.3418167 36.6663,21.9998167 C36.6663,18.9674833 34.1986333,16.4998167 31.1663,16.4998167 L31.1663,16.4998167 L30.9829667,16.4998167 C30.1103,16.4998167 29.3586333,15.8838167 29.1863,15.02765 C28.5006333,11.6323167 25.4793,9.16648333 21.9996333,9.16648333 C18.5218,9.16648333 15.4986333,11.6323167 14.8148,15.02765 C14.6424667,15.8838167 13.8889667,16.4998167 13.0163,16.4998167 L13.0163,16.4998167 L12.8329667,16.4998167 C9.80063333,16.4998167 7.33296667,18.9674833 7.33296667,21.9998167 C7.33296667,23.3418167 7.82063333,24.63615 8.70796667,25.63715 C9.37713333,26.3979833 9.30563333,27.5548167 8.54663333,28.22765 C7.78763333,28.89865 6.62896667,28.8234833 5.9598,28.0663167 C4.4803,26.3924833 3.6663,24.2383167 3.6663,21.9998167 C3.6663,17.36515 7.12396667,13.5224833 11.5954667,12.91565 C13.1006333,8.54498333 17.2696333,5.49981667 21.9996333,5.49981667 Z" id="path-1"></path>
    </defs>
    <g id="Page-1" stroke="none" stroke-width="1" fill="none" fill-rule="evenodd">
        <g id="Second-screen-new-2" transform="translate(-210.000000, -685.000000)">
            <g id="cloud-upload" transform="translate(207.000000, 680.000000)">
                <mask id="mask-2" fill="white">
                    <use xlink:href="#path-1"></use>
                </mask>
                <use id="🎨-Icon-Сolor" fill="#6B6B6B" fill-rule="evenodd" xlink:href="#path-1"></use>
            </g>
        </g>
    </g>
</svg>